/* XPM */
static char * box_small[] = {
"16 16 5 1",
" 	c none",
".	c #868286",
"o	c #C7C3C7",
"O	c #000000",
"+	c #FFFFFF",
"        ..      ",
"      ..oo.     ",
"    ..ooooo.    ",
"  ..oooooooo.   ",
" .oooooooooo.O  ",
" .o+oooooo...O  ",
" .oo+ooo.....O  ",
" .ooo+.......O  ",
" .oooo.......O  ",
" .oooo.......O  ",
" .oooo.......O  ",
" .oooo.......O  ",
"  Oooo.....OO   ",
"   Ooo...OO     ",
"    Oo.OO       ",
"     OO         "};
