/* XPM */
static char * boxes_small[] = {
"16 16 11 1",
" 	c none",
".	c #868286",
"X	c #FF0000",
"o	c #00FF00",
"O	c #C7C3C7",
"+	c #860000",
"@	c #000000",
"#	c #008200",
"$	c #0000FF",
"%	c #FFFFFF",
"&	c #000086",
"    ..          ",
"  ..XX.   ...   ",
" .XXXXX. .ooo.  ",
".XOXXXX+.ooooo@ ",
".XXOX+++.#ooo#@ ",
".XXX++++.o#o##@ ",
".XXX++++.ooo##@ ",
" @XX++++.#oo##@ ",
"  @X+$$$.##o##@ ",
"   @$$$$$#####@ ",
"  .$$%$$$&###@. ",
"  .$$$$$&&@@@.  ",
"  .$$$$&&&@..   ",
"   .$$&&&@.     ",
"    @&&&@.      ",
"     @@@.       "};
