/* XPM */
static char * function_small[] = {
"16 16 3 1",
" 	c none", 
"X	c #7592ff",
".	c #000000",
"                ",
"     ..  ..     ",
"    .XX  XX.    ",
"   .X.    .X.   ",
"   .X      X.   ",
"   .X      X.   ",
"  ..X      X..  ",
" .XX        XX. ",
"  ..X      X..  ",
"   .X      X.   ",
"   .X      X.   ",
"   .X.    .X.   ",
"    .XX  XX.    ",
"     ..  ..     ",
"                ",
"                "};
