/* XPM */
static char * global_small[] = {
"16 16 7 1",
" 	c none",
"X	c #868286",
"o	c #0000FF",
"O	c #00FF00",
"+	c #000000",
"@	c #008200",
"#	c #000086",
"                ",
"      XXXX      ",
"    XXooooXX    ",
"   XoOOooooO+   ",
"  XOOOooooOO@+  ",
"  XOOOOoooOO@+  ",
" XOOOOoooooO##+ ",
" XoOOoooooO@#@+ ",
" Xooooooooo#@@+ ",
" XoOOOoooo##@@+ ",
"  XoOOOoo##@@+  ",
"  XooOO####@#+  ",
"   +###@####+   ",
"    ++####++    ",
"      ++++      ",
"                "};
