/* XPM */
static char * point_small[] = {
"16 16 5 1",
" 	c none",
"a	c #E0E0E0",
".	c #000000",
"X	c #7592ff",
"o	c #808080",
"                ",
"                ",
"                ",
"                ",
"      ...       ",
"    ..aaa..     ",
"    .aXXXo.     ",
"   .aXXXXXo.    ",
"   .aXXXXXo.    ",
"   .aXXXXXo.    ",
"    .aXXXo.     ",
"    ..ooo..     ",
"      ...       ",
"                ",
"                ",
"                "};
